<svg width="294" height="95" viewBox="0 0 294 95" fill="none" xmlns="http://www.w3.org/2000/svg">
<path d="M12.032 87.856C12.1067 87.984 12.1707 88.12 12.224 88.264C12.2827 88.4027 12.3387 88.544 12.392 88.688C12.4453 88.5387 12.5013 88.3973 12.56 88.264C12.6187 88.1253 12.6853 87.9867 12.76 87.848L16.64 80.8C16.7093 80.6773 16.7813 80.6027 16.856 80.576C16.9307 80.5493 17.0373 80.536 17.176 80.536H18.32V92H16.96V83.576C16.96 83.464 16.9627 83.344 16.968 83.216C16.9733 83.088 16.9813 82.9573 16.992 82.824L13.064 89.992C12.9307 90.232 12.744 90.352 12.504 90.352H12.28C12.04 90.352 11.8533 90.232 11.72 89.992L7.704 82.8C7.72 82.9387 7.73067 83.0747 7.736 83.208C7.74667 83.3413 7.752 83.464 7.752 83.576V92H6.392V80.536H7.536C7.67467 80.536 7.78133 80.5493 7.856 80.576C7.93067 80.6027 8.00267 80.6773 8.072 80.8L12.032 87.856ZM37.7748 80.536V81.8H32.2708V85.608H36.7268V86.824H32.2708V90.736H37.7748V92H30.7108V80.536H37.7748ZM59.5436 86.272C59.5436 87.1307 59.4076 87.912 59.1356 88.616C58.8636 89.32 58.4796 89.9227 57.9836 90.424C57.4876 90.9253 56.893 91.3147 56.1996 91.592C55.5063 91.864 54.7383 92 53.8956 92H49.6076V80.536H53.8956C54.7383 80.536 55.5063 80.6747 56.1996 80.952C56.893 81.224 57.4876 81.6133 57.9836 82.12C58.4796 82.6213 58.8636 83.224 59.1356 83.928C59.4076 84.632 59.5436 85.4133 59.5436 86.272ZM57.9516 86.272C57.9516 85.568 57.8556 84.9387 57.6636 84.384C57.4716 83.8293 57.1996 83.36 56.8476 82.976C56.4956 82.592 56.069 82.2987 55.5676 82.096C55.0663 81.8933 54.509 81.792 53.8956 81.792H51.1676V90.744H53.8956C54.509 90.744 55.0663 90.6427 55.5676 90.44C56.069 90.2373 56.4956 89.9467 56.8476 89.568C57.1996 89.184 57.4716 88.7147 57.6636 88.16C57.8556 87.6053 57.9516 86.976 57.9516 86.272ZM73.0945 92H71.5425V80.536H73.0945V92ZM93.8408 89.632C93.9261 89.632 94.0034 89.6667 94.0728 89.736L94.6808 90.4C94.2114 90.944 93.6408 91.368 92.9688 91.672C92.3021 91.976 91.4968 92.128 90.5528 92.128C89.7261 92.128 88.9768 91.9867 88.3048 91.704C87.6328 91.416 87.0594 91.016 86.5848 90.504C86.1101 89.9867 85.7421 89.368 85.4808 88.648C85.2194 87.928 85.0888 87.136 85.0888 86.272C85.0888 85.408 85.2274 84.616 85.5048 83.896C85.7874 83.176 86.1821 82.5573 86.6888 82.04C87.1954 81.5227 87.8008 81.1227 88.5048 80.84C89.2141 80.552 89.9954 80.408 90.8488 80.408C91.6914 80.408 92.4168 80.5387 93.0248 80.8C93.6381 81.0613 94.1821 81.416 94.6568 81.864L94.1528 82.576C94.1154 82.6293 94.0728 82.6747 94.0248 82.712C93.9768 82.744 93.9074 82.76 93.8168 82.76C93.7474 82.76 93.6728 82.736 93.5928 82.688C93.5181 82.6347 93.4274 82.5707 93.3208 82.496C93.2141 82.4213 93.0888 82.3413 92.9448 82.256C92.8008 82.1707 92.6301 82.0907 92.4328 82.016C92.2354 81.9413 92.0061 81.88 91.7448 81.832C91.4834 81.7787 91.1821 81.752 90.8408 81.752C90.2274 81.752 89.6648 81.8587 89.1528 82.072C88.6461 82.28 88.2088 82.5787 87.8408 82.968C87.4728 83.3573 87.1848 83.832 86.9768 84.392C86.7741 84.952 86.6728 85.5787 86.6728 86.272C86.6728 86.9867 86.7741 87.624 86.9768 88.184C87.1848 88.744 87.4648 89.2187 87.8168 89.608C88.1741 89.992 88.5954 90.2853 89.0808 90.488C89.5661 90.6907 90.0888 90.792 90.6488 90.792C90.9901 90.792 91.2968 90.7733 91.5688 90.736C91.8408 90.6933 92.0914 90.6293 92.3208 90.544C92.5554 90.4587 92.7714 90.352 92.9688 90.224C93.1714 90.0907 93.3741 89.9333 93.5768 89.752C93.6674 89.672 93.7554 89.632 93.8408 89.632ZM115.746 92H114.546C114.407 92 114.295 91.9653 114.21 91.896C114.125 91.8267 114.061 91.7387 114.018 91.632L112.946 88.864H107.802L106.73 91.632C106.693 91.728 106.629 91.8133 106.538 91.888C106.447 91.9627 106.335 92 106.202 92H105.002L109.586 80.536H111.162L115.746 92ZM108.234 87.744H112.514L110.714 83.08C110.597 82.792 110.482 82.432 110.37 82C110.311 82.2187 110.253 82.4213 110.194 82.608C110.141 82.7893 110.087 82.9493 110.034 83.088L108.234 87.744ZM128.341 90.696H133.301V92H126.789V80.536H128.341V90.696ZM163.173 82.328C163.125 82.408 163.075 82.4693 163.021 82.512C162.968 82.5493 162.899 82.568 162.813 82.568C162.723 82.568 162.616 82.5227 162.493 82.432C162.376 82.3413 162.224 82.2427 162.037 82.136C161.856 82.024 161.635 81.9227 161.373 81.832C161.117 81.7413 160.805 81.696 160.437 81.696C160.091 81.696 159.784 81.744 159.517 81.84C159.251 81.9307 159.027 82.056 158.845 82.216C158.669 82.376 158.536 82.5653 158.445 82.784C158.355 82.9973 158.309 83.2293 158.309 83.48C158.309 83.8 158.387 84.0667 158.541 84.28C158.701 84.488 158.909 84.6667 159.165 84.816C159.427 84.9653 159.72 85.096 160.045 85.208C160.376 85.3147 160.712 85.4267 161.053 85.544C161.4 85.6613 161.736 85.7947 162.061 85.944C162.392 86.088 162.685 86.272 162.941 86.496C163.203 86.72 163.411 86.9947 163.565 87.32C163.725 87.6453 163.805 88.0453 163.805 88.52C163.805 89.0213 163.72 89.4933 163.549 89.936C163.379 90.3733 163.128 90.7547 162.797 91.08C162.472 91.4053 162.069 91.6613 161.589 91.848C161.115 92.0347 160.573 92.128 159.965 92.128C159.224 92.128 158.547 91.9947 157.933 91.728C157.325 91.456 156.805 91.0907 156.373 90.632L156.821 89.896C156.864 89.8373 156.915 89.7893 156.973 89.752C157.037 89.7093 157.107 89.688 157.181 89.688C157.293 89.688 157.421 89.7493 157.565 89.872C157.709 89.9893 157.888 90.12 158.101 90.264C158.32 90.408 158.581 90.5413 158.885 90.664C159.195 90.7813 159.571 90.84 160.013 90.84C160.381 90.84 160.709 90.7893 160.997 90.688C161.285 90.5867 161.528 90.4453 161.725 90.264C161.928 90.0773 162.083 89.856 162.189 89.6C162.296 89.344 162.349 89.0587 162.349 88.744C162.349 88.3973 162.269 88.1147 162.109 87.896C161.955 87.672 161.749 87.4853 161.493 87.336C161.237 87.1867 160.944 87.0613 160.613 86.96C160.288 86.8533 159.952 86.7467 159.605 86.64C159.264 86.528 158.928 86.4 158.597 86.256C158.272 86.112 157.981 85.9253 157.725 85.696C157.469 85.4667 157.261 85.1813 157.101 84.84C156.947 84.4933 156.869 84.0667 156.869 83.56C156.869 83.1547 156.947 82.7627 157.101 82.384C157.261 82.0053 157.491 81.6693 157.789 81.376C158.088 81.0827 158.456 80.848 158.893 80.672C159.336 80.496 159.843 80.408 160.413 80.408C161.053 80.408 161.637 80.5093 162.165 80.712C162.693 80.9147 163.155 81.208 163.549 81.592L163.173 82.328ZM179.842 90.768C180.316 90.768 180.74 90.688 181.114 90.528C181.487 90.368 181.802 90.144 182.058 89.856C182.319 89.568 182.516 89.224 182.65 88.824C182.788 88.424 182.858 87.984 182.858 87.504V80.536H184.402V87.504C184.402 88.1653 184.295 88.7787 184.082 89.344C183.874 89.9093 183.572 90.4 183.178 90.816C182.788 91.2267 182.311 91.5493 181.746 91.784C181.18 92.0187 180.546 92.136 179.842 92.136C179.138 92.136 178.503 92.0187 177.938 91.784C177.372 91.5493 176.892 91.2267 176.498 90.816C176.103 90.4 175.799 89.9093 175.586 89.344C175.378 88.7787 175.274 88.1653 175.274 87.504V80.536H176.818V87.496C176.818 87.976 176.884 88.416 177.018 88.816C177.156 89.216 177.354 89.56 177.61 89.848C177.871 90.136 178.188 90.3627 178.562 90.528C178.94 90.688 179.367 90.768 179.842 90.768ZM198.377 87.712V92H196.833V80.536H200.217C200.943 80.536 201.572 80.6213 202.105 80.792C202.644 80.9573 203.089 81.1947 203.441 81.504C203.793 81.8133 204.055 82.1867 204.225 82.624C204.401 83.0613 204.489 83.5493 204.489 84.088C204.489 84.6213 204.396 85.1093 204.209 85.552C204.023 85.9947 203.748 86.376 203.385 86.696C203.028 87.016 202.583 87.2667 202.049 87.448C201.516 87.624 200.905 87.712 200.217 87.712H198.377ZM198.377 86.48H200.217C200.66 86.48 201.049 86.4213 201.385 86.304C201.727 86.1867 202.012 86.024 202.241 85.816C202.471 85.6027 202.644 85.3493 202.761 85.056C202.879 84.7627 202.937 84.44 202.937 84.088C202.937 83.3573 202.711 82.7867 202.257 82.376C201.809 81.9653 201.129 81.76 200.217 81.76H198.377V86.48ZM217.759 87.712V92H216.215V80.536H219.599C220.324 80.536 220.953 80.6213 221.487 80.792C222.025 80.9573 222.471 81.1947 222.823 81.504C223.175 81.8133 223.436 82.1867 223.607 82.624C223.783 83.0613 223.871 83.5493 223.871 84.088C223.871 84.6213 223.777 85.1093 223.591 85.552C223.404 85.9947 223.129 86.376 222.767 86.696C222.409 87.016 221.964 87.2667 221.431 87.448C220.897 87.624 220.287 87.712 219.599 87.712H217.759ZM217.759 86.48H219.599C220.041 86.48 220.431 86.4213 220.767 86.304C221.108 86.1867 221.393 86.024 221.623 85.816C221.852 85.6027 222.025 85.3493 222.143 85.056C222.26 84.7627 222.319 84.44 222.319 84.088C222.319 83.3573 222.092 82.7867 221.639 82.376C221.191 81.9653 220.511 81.76 219.599 81.76H217.759V86.48ZM236.988 90.696H241.948V92H235.436V80.536H236.988V90.696ZM255.095 92H253.543V80.536H255.095V92ZM274.825 80.536V81.8H269.321V85.608H273.777V86.824H269.321V90.736H274.825V92H267.761V80.536H274.825ZM292.53 82.328C292.482 82.408 292.431 82.4693 292.378 82.512C292.324 82.5493 292.255 82.568 292.17 82.568C292.079 82.568 291.972 82.5227 291.85 82.432C291.732 82.3413 291.58 82.2427 291.394 82.136C291.212 82.024 290.991 81.9227 290.73 81.832C290.474 81.7413 290.162 81.696 289.794 81.696C289.447 81.696 289.14 81.744 288.874 81.84C288.607 81.9307 288.383 82.056 288.202 82.216C288.026 82.376 287.892 82.5653 287.802 82.784C287.711 82.9973 287.666 83.2293 287.666 83.48C287.666 83.8 287.743 84.0667 287.898 84.28C288.058 84.488 288.266 84.6667 288.522 84.816C288.783 84.9653 289.076 85.096 289.402 85.208C289.732 85.3147 290.068 85.4267 290.41 85.544C290.756 85.6613 291.092 85.7947 291.418 85.944C291.748 86.088 292.042 86.272 292.298 86.496C292.559 86.72 292.767 86.9947 292.922 87.32C293.082 87.6453 293.162 88.0453 293.162 88.52C293.162 89.0213 293.076 89.4933 292.906 89.936C292.735 90.3733 292.484 90.7547 292.154 91.08C291.828 91.4053 291.426 91.6613 290.946 91.848C290.471 92.0347 289.93 92.128 289.322 92.128C288.58 92.128 287.903 91.9947 287.29 91.728C286.682 91.456 286.162 91.0907 285.73 90.632L286.178 89.896C286.22 89.8373 286.271 89.7893 286.33 89.752C286.394 89.7093 286.463 89.688 286.538 89.688C286.65 89.688 286.778 89.7493 286.922 89.872C287.066 89.9893 287.244 90.12 287.458 90.264C287.676 90.408 287.938 90.5413 288.242 90.664C288.551 90.7813 288.927 90.84 289.37 90.84C289.738 90.84 290.066 90.7893 290.354 90.688C290.642 90.5867 290.884 90.4453 291.082 90.264C291.284 90.0773 291.439 89.856 291.546 89.6C291.652 89.344 291.706 89.0587 291.706 88.744C291.706 88.3973 291.626 88.1147 291.466 87.896C291.311 87.672 291.106 87.4853 290.85 87.336C290.594 87.1867 290.3 87.0613 289.97 86.96C289.644 86.8533 289.308 86.7467 288.962 86.64C288.62 86.528 288.284 86.4 287.954 86.256C287.628 86.112 287.338 85.9253 287.082 85.696C286.826 85.4667 286.618 85.1813 286.458 84.84C286.303 84.4933 286.226 84.0667 286.226 83.56C286.226 83.1547 286.303 82.7627 286.458 82.384C286.618 82.0053 286.847 81.6693 287.146 81.376C287.444 81.0827 287.812 80.848 288.25 80.672C288.692 80.496 289.199 80.408 289.77 80.408C290.41 80.408 290.994 80.5093 291.522 80.712C292.05 80.9147 292.511 81.208 292.906 81.592L292.53 82.328Z" fill="#999999"/>
<path d="M82 22.403H87.712C88.328 22.403 88.832 22.543 89.224 22.823C89.616 23.103 89.896 23.474 90.064 23.936L95.986 40.316C96.252 41.03 96.518 41.807 96.784 42.647C97.064 43.487 97.323 44.369 97.561 45.293C97.757 44.369 97.981 43.487 98.233 42.647C98.499 41.807 98.758 41.03 99.01 40.316L104.89 23.936C105.03 23.544 105.303 23.194 105.709 22.886C106.115 22.564 106.612 22.403 107.2 22.403H112.954L100.69 53H94.264L82 22.403ZM139.385 22.403V27.863H126.827V35.003H136.445V40.253H126.827V47.54H139.385V53H119.687V22.403H139.385ZM154.733 47.33H166.073V53H147.635V22.403H154.733V47.33ZM202.09 53H196.588C195.972 53 195.461 52.86 195.055 52.58C194.663 52.286 194.39 51.915 194.236 51.467L192.43 46.133H180.796L178.99 51.467C178.85 51.859 178.577 52.216 178.171 52.538C177.765 52.846 177.268 53 176.68 53H171.136L182.98 22.403H190.246L202.09 53ZM182.434 41.303H190.792L187.978 32.924C187.796 32.392 187.579 31.769 187.327 31.055C187.089 30.327 186.851 29.543 186.613 28.703C186.389 29.557 186.158 30.348 185.92 31.076C185.682 31.804 185.458 32.434 185.248 32.966L182.434 41.303ZM231.167 22.403V24.965C231.167 25.329 231.104 25.686 230.978 26.036C230.866 26.386 230.705 26.715 230.495 27.023L216.131 47.54H230.705V53H207.101V50.27C207.101 49.948 207.157 49.633 207.269 49.325C207.381 49.003 207.535 48.709 207.731 48.443L222.137 27.863H208.277V22.403H231.167ZM246.386 53H239.246V22.403H246.386V53ZM286.467 37.691C286.467 39.903 286.082 41.961 285.312 43.865C284.556 45.769 283.485 47.428 282.099 48.842C280.713 50.242 279.04 51.341 277.08 52.139C275.134 52.937 272.971 53.336 270.591 53.336C268.211 53.336 266.041 52.937 264.081 52.139C262.121 51.341 260.441 50.242 259.041 48.842C257.655 47.428 256.577 45.769 255.807 43.865C255.051 41.961 254.673 39.903 254.673 37.691C254.673 35.479 255.051 33.421 255.807 31.517C256.577 29.613 257.655 27.961 259.041 26.561C260.441 25.161 262.121 24.062 264.081 23.264C266.041 22.466 268.211 22.067 270.591 22.067C272.971 22.067 275.134 22.473 277.08 23.285C279.04 24.083 280.713 25.182 282.099 26.582C283.485 27.982 284.556 29.634 285.312 31.538C286.082 33.442 286.467 35.493 286.467 37.691ZM279.201 37.691C279.201 36.179 279.005 34.821 278.613 33.617C278.221 32.399 277.654 31.37 276.912 30.53C276.184 29.69 275.288 29.046 274.224 28.598C273.16 28.15 271.949 27.926 270.591 27.926C269.219 27.926 267.994 28.15 266.916 28.598C265.852 29.046 264.949 29.69 264.207 30.53C263.479 31.37 262.919 32.399 262.527 33.617C262.135 34.821 261.939 36.179 261.939 37.691C261.939 39.217 262.135 40.589 262.527 41.807C262.919 43.011 263.479 44.033 264.207 44.873C264.949 45.713 265.852 46.357 266.916 46.805C267.994 47.239 269.219 47.456 270.591 47.456C271.949 47.456 273.16 47.239 274.224 46.805C275.288 46.357 276.184 45.713 276.912 44.873C277.654 44.033 278.221 43.011 278.613 41.807C279.005 40.589 279.201 39.217 279.201 37.691Z" fill="#242424"/>
<path d="M32.8067 65.6135C50.9254 65.6135 65.6135 50.9254 65.6135 32.8067C65.6135 14.6881 50.9254 0 32.8067 0C14.6881 0 0 14.6881 0 32.8067C0 50.9254 14.6881 65.6135 32.8067 65.6135Z" fill="#19B3BD"/>
<path d="M30.1796 7.50537H35.4338V58.1071H30.1796V7.50537Z" fill="url(#paint0_linear)"/>
<path d="M7.5058 30.1792H58.1075V35.4334H7.5058V30.1792Z" fill="#E72C59"/>
<path d="M32.8224 30.1792H58.1078V35.4334H32.8224V30.1792Z" fill="#E72C59"/>
<path d="M13.0549 48.8374L48.8303 13.062L52.545 16.7767L16.7696 52.5521L13.0549 48.8374Z" fill="#E72C59"/>
<path d="M48.8395 13.0591L32.8224 29.0763V36.5069L52.555 16.7743L48.8395 13.0591Z" fill="#E72C59"/>
<path d="M13.0545 16.7761L16.7692 13.0614L52.5446 48.8368L48.8299 52.5515L13.0545 16.7761Z" fill="#E72C59"/>
<path d="M52.555 48.8388L32.8224 29.1062V36.5368L48.8395 52.554L52.555 48.8388Z" fill="#E72C59"/>
<path d="M32.8067 51.9701C43.3904 51.9701 51.9702 43.3903 51.9702 32.8066C51.9702 22.2229 43.3904 13.6431 32.8067 13.6431C22.223 13.6431 13.6432 22.2229 13.6432 32.8066C13.6432 43.3903 22.223 51.9701 32.8067 51.9701Z" fill="url(#paint1_linear)"/>
<path d="M32.8067 51.9701C43.3904 51.9701 51.9702 43.3903 51.9702 32.8066C51.9702 22.2229 43.3904 13.6431 32.8067 13.6431C22.223 13.6431 13.6432 22.2229 13.6432 32.8066C13.6432 43.3903 22.223 51.9701 32.8067 51.9701Z" fill="url(#paint2_linear)"/>
<path d="M26.8649 26.7792C28.4386 26.7792 29.7143 25.5035 29.7143 23.9298C29.7143 22.3561 28.4386 21.0803 26.8649 21.0803C25.2912 21.0803 24.0154 22.3561 24.0154 23.9298C24.0154 25.5035 25.2912 26.7792 26.8649 26.7792Z" fill="url(#paint3_linear)"/>
<path d="M43.334 39.2397C45.3227 39.2397 46.9349 37.6275 46.9349 35.6388C46.9349 33.65 45.3227 32.0378 43.334 32.0378C41.3452 32.0378 39.733 33.65 39.733 35.6388C39.733 37.6275 41.3452 39.2397 43.334 39.2397Z" fill="url(#paint4_linear)"/>
<path d="M43.334 39.2397C45.3227 39.2397 46.9349 37.6275 46.9349 35.6388C46.9349 33.65 45.3227 32.0378 43.334 32.0378C41.3452 32.0378 39.733 33.65 39.733 35.6388C39.733 37.6275 41.3452 39.2397 43.334 39.2397Z" fill="url(#paint5_linear)"/>
<path d="M40.9016 24.9317C42.2449 24.9317 43.3338 23.8428 43.3338 22.4996C43.3338 21.1563 42.2449 20.0674 40.9016 20.0674C39.5583 20.0674 38.4694 21.1563 38.4694 22.4996C38.4694 23.8428 39.5583 24.9317 40.9016 24.9317Z" fill="url(#paint6_linear)"/>
<path d="M40.9016 24.9317C42.2449 24.9317 43.3338 23.8428 43.3338 22.4996C43.3338 21.1563 42.2449 20.0674 40.9016 20.0674C39.5583 20.0674 38.4694 21.1563 38.4694 22.4996C38.4694 23.8428 39.5583 24.9317 40.9016 24.9317Z" fill="url(#paint7_linear)"/>
<path d="M26.3373 46.0345C28.7956 46.0345 30.7885 44.0416 30.7885 41.5833C30.7885 39.125 28.7956 37.1321 26.3373 37.1321C23.8789 37.1321 21.886 39.125 21.886 41.5833C21.886 44.0416 23.8789 46.0345 26.3373 46.0345Z" fill="url(#paint8_linear)"/>
<path d="M26.3373 46.0345C28.7956 46.0345 30.7885 44.0416 30.7885 41.5833C30.7885 39.125 28.7956 37.1321 26.3373 37.1321C23.8789 37.1321 21.886 39.125 21.886 41.5833C21.886 44.0416 23.8789 46.0345 26.3373 46.0345Z" fill="url(#paint9_linear)"/>
<defs>
<linearGradient id="paint0_linear" x1="30.1796" y1="32.8062" x2="35.4338" y2="32.8062" gradientUnits="userSpaceOnUse">
<stop stop-color="#FF7495"/>
<stop offset="1" stop-color="#E72C59"/>
</linearGradient>
<linearGradient id="paint1_linear" x1="13.6432" y1="32.8066" x2="51.9702" y2="32.8066" gradientUnits="userSpaceOnUse">
<stop stop-color="#F28747"/>
<stop offset="1" stop-color="#E44D1A"/>
</linearGradient>
<linearGradient id="paint2_linear" x1="13.6432" y1="32.8066" x2="51.9707" y2="32.8066" gradientUnits="userSpaceOnUse">
<stop stop-color="#F36D8E"/>
<stop offset="1" stop-color="#E72C59"/>
</linearGradient>
<linearGradient id="paint3_linear" x1="24.0154" y1="23.9298" x2="29.7144" y2="23.9298" gradientUnits="userSpaceOnUse">
<stop stop-color="#F36D8E"/>
<stop offset="1" stop-color="#E72C59"/>
</linearGradient>
<linearGradient id="paint4_linear" x1="39.733" y1="35.6388" x2="46.935" y2="35.6388" gradientUnits="userSpaceOnUse">
<stop stop-color="#FF6125"/>
<stop offset="1" stop-color="#C03000"/>
</linearGradient>
<linearGradient id="paint5_linear" x1="39.733" y1="35.6388" x2="46.935" y2="35.6388" gradientUnits="userSpaceOnUse">
<stop stop-color="#F36D8E"/>
<stop offset="1" stop-color="#E72C59"/>
</linearGradient>
<linearGradient id="paint6_linear" x1="38.4694" y1="22.4996" x2="43.3339" y2="22.4996" gradientUnits="userSpaceOnUse">
<stop stop-color="#FF6125"/>
<stop offset="1" stop-color="#C03000"/>
</linearGradient>
<linearGradient id="paint7_linear" x1="38.4694" y1="22.4996" x2="43.3339" y2="22.4996" gradientUnits="userSpaceOnUse">
<stop stop-color="#F36D8E"/>
<stop offset="1" stop-color="#E72C59"/>
</linearGradient>
<linearGradient id="paint8_linear" x1="21.886" y1="41.5833" x2="30.7886" y2="41.5833" gradientUnits="userSpaceOnUse">
<stop stop-color="#FF6125"/>
<stop offset="1" stop-color="#C03000"/>
</linearGradient>
<linearGradient id="paint9_linear" x1="21.886" y1="41.5833" x2="30.7886" y2="41.5833" gradientUnits="userSpaceOnUse">
<stop stop-color="#F36D8E"/>
<stop offset="1" stop-color="#E72C59"/>
</linearGradient>
</defs>
</svg>
