<svg xmlns="http://www.w3.org/2000/svg" width="313" height="204.092" viewBox="0 0 313 204.092">
    <defs>
        <style>
            .cls-1{fill:rgba(255,255,255,.94);stroke:#eeeff1}.cls-2,.cls-3,.cls-6{fill:#6b6b6b}.cls-2,.cls-3{font-size:6px;font-family:Lato-Bold,Lato;font-weight:700}.cls-3{font-size:5px}.cls-4{font-size:5px;fill:#9b9b9b}.cls-4,.cls-9{font-family:Lato-Regular,Lato}.cls-11,.cls-13,.cls-5{fill:none}.cls-5{stroke:#9b9b9b;stroke-width:.25px}.cls-7{fill:#f0f0f0}.cls-8{fill:#afafaf}.cls-12,.cls-9{fill:rgba(21,27,57,.6)}.cls-9{font-size:10px}.cls-10,.cls-9{letter-spacing:.001em}.cls-10{fill:rgba(21,27,57,.38);font-size:35px;font-family:Lato-Light,Lato;font-weight:300}.cls-12{fill-rule:evenodd}.cls-13{stroke:rgba(21,27,57,.38)}.cls-14{stroke:none}
        </style>
    </defs>
    <g id="Group_323" data-name="Group 323" transform="translate(-24 -440.454)">
        <g id="Group_316" data-name="Group 316" transform="translate(2577.833 -2359)">
            <g id="Rectangle_297" class="cls-1" data-name="Rectangle 297" transform="translate(-2553.833 2799.454)">
                <rect width="166.666" height="204.092" class="cls-14" rx="8"/>
                <rect width="165.666" height="203.092" x=".5" y=".5" class="cls-11" rx="7.5"/>
            </g>
            <text id="Dr_XYZ_MBBS_MD" class="cls-2" data-name="Dr XYZ, MBBS, MD" transform="translate(-2520 2815.037)">
                <tspan x="-25.748" y="0">Dr XYZ, MBBS, MD</tspan>
            </text>
            <text id="Patient_s_Name" class="cls-3" data-name="Patient's Name" transform="translate(-2529 2866.23)">
                <tspan x="-16.989" y="0">Patient&apos;s Name</tspan>
            </text>
            <text id="Patient_s_Age" class="cls-3" data-name="Patient's Age" transform="translate(-2442.952 2866.23)">
                <tspan x="-14.754" y="0">Patient&apos;s Age</tspan>
            </text>
            <text id="Patient_s_Address" class="cls-3" data-name="Patient's Address" transform="translate(-2526 2877.169)">
                <tspan x="-19.516" y="0">Patient&apos;s Address</tspan>
            </text>
            <text id="Medicine" class="cls-4" transform="translate(-2532.894 2911.196)">
                <tspan x="-10.155" y="0">Medicine</tspan>
            </text>
            <text id="Dosage" class="cls-4" transform="translate(-2408.768 2911.196)">
                <tspan x="-8.212" y="0">Dosage</tspan>
            </text>
            <text id="Strength" class="cls-4" transform="translate(-2490.423 2911.196)">
                <tspan x="-9.565" y="0">Strength</tspan>
            </text>
            <text id="Duration" class="cls-4" transform="translate(-2449.239 2911.196)">
                <tspan x="-9.852" y="0">Duration</tspan>
            </text>
            <text id="Date_of_Issue" class="cls-3" data-name="Date of Issue" transform="translate(-2443.952 2877.169)">
                <tspan x="-14.471" y="0">Date of Issue</tspan>
            </text>
            <text id="Hospital_Clinic_Name" class="cls-4" data-name="Hospital/Clinic Name" transform="translate(-2523 2825.907)">
                <tspan x="-23.285" y="0">Hospital/Clinic Name</tspan>
            </text>
            <text id="Hospital_Clinic_Address" class="cls-4" data-name="Hospital/Clinic Address" transform="translate(-2520 2834.272)">
                <tspan x="-25.747" y="0">Hospital/Clinic Address</tspan>
            </text>
            <text id="Reg_No." class="cls-4" data-name="Reg No." transform="translate(-2538 2842.638)">
                <tspan x="-8.49" y="0">Reg No.</tspan>
            </text>
            <path id="Line_9" d="M0 0h48.525" class="cls-5" data-name="Line 9" transform="translate(-2498.573 2826.377)"/>
            <path id="Line_10" d="M0 0h44.021" class="cls-5" data-name="Line 10" transform="translate(-2494.068 2835.386)"/>
            <path id="Line_11" d="M0 0h39.897" class="cls-5" data-name="Line 11" transform="translate(-2526.91 2843.108)"/>
            <path id="Line_12" d="M0 0h36.036" class="cls-5" data-name="Line 12" transform="translate(-2503.318 2866.7)"/>
            <path id="Line_15" d="M0 0h24.453" class="cls-5" data-name="Line 15" transform="translate(-2422.881 2866.7)"/>
            <path id="Line_13" d="M0 0h32.175" class="cls-5" data-name="Line 13" transform="translate(-2497.527 2877.639)"/>
            <path id="Line_14" d="M0 0h26.383" class="cls-5" data-name="Line 14" transform="translate(-2424.168 2877.639)"/>
            <g id="Group_306" data-name="Group 306" transform="rotate(14 -13058.504 -8910.403)">
                <g id="Group_305" data-name="Group 305">
                    <g id="Group_295" data-name="Group 295">
                        <path id="Path_757" d="M1.786 6.9a.226.226 0 0 1-.227-.168L.922 4.3.007.8A.225.225 0 0 1 .169.524L1.916.066a2.03 2.03 0 0 1 2.266 2.992A2.019 2.019 0 0 1 2.944 4l-1.53.4L2 6.619a.225.225 0 0 1-.161.275.233.233 0 0 1-.053.006zM.5.9l.8 3.059 1.53-.4A1.581 1.581 0 0 0 2.03.5z" class="cls-6" data-name="Path 757"/>
                    </g>
                    <g id="Group_296" data-name="Group 296" transform="translate(2.462 3.607)">
                        <path id="Path_758" d="M5.111 3.305a.226.226 0 0 1-.123-.031L.112.42A.225.225 0 0 1 .339.031l4.877 2.855a.225.225 0 0 1-.1.42z" class="cls-6" data-name="Path 758"/>
                    </g>
                </g>
                <g id="Group_297" data-name="Group 297" transform="translate(4.267 3.391)">
                    <path id="Path_759" d="M.235 4.325a.225.225 0 0 1-.2-.339L2.3.112a.225.225 0 0 1 .389.228L.42 4.214a.225.225 0 0 1-.185.111z" class="cls-6" data-name="Path 759"/>
                </g>
            </g>
            <g id="Group_303" data-name="Group 303" transform="translate(-2430.116 2966.639)">
                <path id="Path_765" d="M132.032 142.189a12.745 12.745 0 1 1 2.7-.407 12.8 12.8 0 0 1-2.7.407zm-1.005-24.5a11.787 11.787 0 1 0 11.884 8.8 11.892 11.892 0 0 0-11.885-8.798zm.816 19.888a8.117 8.117 0 1 1 7.518-10.163 8.118 8.118 0 0 1-5.8 9.905 8.177 8.177 0 0 1-1.719.259zm-.627-15.278a7.174 7.174 0 1 0 2.108 14.107 7.173 7.173 0 0 0 5.125-8.753 7.21 7.21 0 0 0-7.233-5.353z" class="cls-7" data-name="Path 765" transform="translate(-118.778 -116.737)"/>
            </g>
            <g id="Group_304" data-name="Group 304" transform="translate(-2441.944 2969.994)">
                <path id="Path_766" d="M124.634 154.815a.283.283 0 0 1-.289-.227c-.964-4.845 5.306-13.726 7.72-14.278a.82.82 0 0 1 1.052.651 49.074 49.074 0 0 1 1.039 5.6c.067.475.136.96.2 1.3.127-.362.265-.919.369-1.335.353-1.427.577-2.236 1.095-2.276.374-.025.61.394.765.765a5.982 5.982 0 0 1 .2 1.757 6.222 6.222 0 0 0 .162 1.571 3.168 3.168 0 0 0 .733-.957c.558-.921 3.494-4.411 4.914-3.9.609.218.816 1 .633 2.4a.056.056 0 0 0 .032.011c.265.012.817-.729 1.269-1.317.926-1.2 2.079-2.7 3.49-2.649a3.167 3.167 0 0 1 2.36 1.662 50.724 50.724 0 0 0 4.458-3.154c1.671-1.251 3.4-2.544 4.423-3.184a.283.283 0 1 1 .3.48c-1 .626-2.721 1.912-4.384 3.156-3.545 2.654-4.56 3.36-4.951 3.3a.387.387 0 0 1-.221-.142c-.67-1.006-1.343-1.527-2-1.55-1.128-.041-2.177 1.33-3.022 2.428-.691.9-1.183 1.54-1.725 1.539a.685.685 0 0 1-.552-.313.284.284 0 0 1-.053-.208c.231-1.575-.095-1.871-.245-1.926-.875-.317-3.518 2.468-4.24 3.661-.6.989-.982 1.336-1.366 1.235-.514-.135-.54-.969-.576-2.123a6.146 6.146 0 0 0-.156-1.559 1.619 1.619 0 0 0-.208-.385 7.915 7.915 0 0 0-.583 1.816c-.3 1.2-.481 1.882-.841 2.058a.327.327 0 0 1-.3-.005c-.25-.133-.31-.508-.529-2.071a49.322 49.322 0 0 0-1.029-5.539c-.061-.234-.151-.294-.379-.242-1.944.444-8.236 8.874-7.292 13.618a.282.282 0 0 1-.223.331.32.32 0 0 1-.05.001z" class="cls-8" data-name="Path 766" transform="translate(-124.245 -137.212)"/>
            </g>
            <text id="Doctors_Sign_and_Stamp" class="cls-2" data-name="Doctors Sign and Stamp" transform="translate(-2427.674 2994.241)">
                <tspan x="-31.749" y="0">Doctors Sign and Stamp</tspan>
            </text>
        </g>
        <text id="Doctor_and_Clinic_Details" class="cls-9" data-name="Doctor and Clinic Details" transform="translate(282 470)">
            <tspan x="-54.56" y="0">Doctor and Clinic Details</tspan>
        </text>
        <text id="_" class="cls-10" data-name="}" transform="translate(132 478)">
            <tspan x="-5.25" y="0">}</tspan>
        </text>
        <text id="_2" class="cls-10" data-name="}" transform="translate(181 523)">
            <tspan x="-5.25" y="0">}</tspan>
        </text>
        <text id="_3" class="cls-10" data-name="}" transform="translate(181 571)">
            <tspan x="-5.25" y="0">}</tspan>
        </text>
        <text id="_4" class="cls-10" data-name="}" transform="translate(186 633)">
            <tspan x="-5.25" y="0">}</tspan>
        </text>
        <text id="Patient_and_Visit_Details" class="cls-9" data-name="Patient and Visit Details" transform="translate(280 517)">
            <tspan x="-52.51" y="0">Patient and Visit Details</tspan>
        </text>
        <text id="Medicine_Details" class="cls-9" data-name="Medicine Details" transform="translate(264 562)">
            <tspan x="-36.865" y="0">Medicine Details</tspan>
        </text>
        <text id="Doctor_Sign_and_Stamp" class="cls-9" data-name="Doctor Sign and Stamp" transform="translate(282 626)">
            <tspan x="-49.825" y="0">Doctor Sign and Stamp</tspan>
        </text>
        <g id="Group_312" data-name="Group 312" transform="translate(203 456)">
            <path id="Path_767" d="M-2-2h24v24H-2z" class="cls-11" data-name="Path 767"/>
            <g id="Group_311" data-name="Group 311">
                <path id="a" d="M10 0a10 10 0 1 0 10 10A10 10 0 0 0 10 0zM8.5 14.42l-4-4 1.41-1.41 2.59 2.58L14.09 6l1.41 1.42z" class="cls-12"/>
            </g>
        </g>
        <g id="Group_317" data-name="Group 317" transform="translate(203 503)">
            <path id="Path_767-2" d="M-2-2h24v24H-2z" class="cls-11" data-name="Path 767"/>
            <g id="Group_311-2" data-name="Group 311">
                <path id="a-2" d="M10 0a10 10 0 1 0 10 10A10 10 0 0 0 10 0zM8.5 14.42l-4-4 1.41-1.41 2.59 2.58L14.09 6l1.41 1.42z" class="cls-12" data-name="a"/>
            </g>
        </g>
        <g id="Group_318" data-name="Group 318" transform="translate(203 548)">
            <path id="Path_767-3" d="M-2-2h24v24H-2z" class="cls-11" data-name="Path 767"/>
            <g id="Group_311-3" data-name="Group 311">
                <path id="a-3" d="M10 0a10 10 0 1 0 10 10A10 10 0 0 0 10 0zM8.5 14.42l-4-4 1.41-1.41 2.59 2.58L14.09 6l1.41 1.42z" class="cls-12" data-name="a"/>
            </g>
        </g>
        <g id="Group_319" data-name="Group 319" transform="translate(208 612)">
            <path id="Path_767-4" d="M-2-2h24v24H-2z" class="cls-11" data-name="Path 767"/>
            <g id="Group_311-4" data-name="Group 311">
                <path id="a-4" d="M10 0a10 10 0 1 0 10 10A10 10 0 0 0 10 0zM8.5 14.42l-4-4 1.41-1.41 2.59 2.58L14.09 6l1.41 1.42z" class="cls-12" data-name="a"/>
            </g>
        </g>
        <path id="Path_772" d="M-2514 2874h63.243" class="cls-13" data-name="Path 772" transform="translate(2650.115 -2407)"/>
        <path id="Path_773" d="M-2514 2874h14.243" class="cls-13" data-name="Path 773" transform="translate(2699.115 -2362)"/>
        <path id="Path_774" d="M-2514 2874h14.243" class="cls-13" data-name="Path 774" transform="translate(2699.115 -2314)"/>
        <path id="Path_775" d="M-2514 2874h14.243" class="cls-13" data-name="Path 775" transform="translate(2704.115 -2252)"/>
    </g>
</svg>
